HIERARCHY
ROOT reference
{
  OFFSET 0 0 0
  CHANNELS 6 Xposition Yposition Zposition Zrotation Xrotation Yrotation
  JOINT Hips
  {
    OFFSET 15.7126 92.764 132.074
    CHANNELS 6 Xposition Yposition Zposition Zrotation Xrotation Yrotation
    JOINT Spine
    {
      OFFSET 0 7.86299 0
      CHANNELS 6 Xposition Yposition Zposition Zrotation Xrotation Yrotation
      JOINT Spine1
      {
        OFFSET 0 22.6654 0
        CHANNELS 6 Xposition Yposition Zposition Zrotation Xrotation Yrotation
        JOINT Neck
        {
          OFFSET 0 22.5723 2.05203
          CHANNELS 6 Xposition Yposition Zposition Zrotation Xrotation Yrotation
          JOINT Head
          {
            OFFSET 0 13.4246 -1.9178
            CHANNELS 6 Xposition Yposition Zposition Zrotation Xrotation Yrotation
            End Site
            {
              OFFSET 0 23.9725 0
            }
          }
        }
        JOINT LeftShoulder
        {
          OFFSET 3.7941 20.1358 -0.319195
          CHANNELS 6 Xposition Yposition Zposition Zrotation Xrotation Yrotation
          JOINT LeftArm
          {
            OFFSET 12.7665 0 0
            CHANNELS 6 Xposition Yposition Zposition Zrotation Xrotation Yrotation
            JOINT LeftForeArm
            {
              OFFSET 28.396 0 0
              CHANNELS 6 Xposition Yposition Zposition Zrotation Xrotation Yrotation
              JOINT LeftHand
              {
                OFFSET 28.7929 0 0
                CHANNELS 6 Xposition Yposition Zposition Zrotation Xrotation Yrotation
                End Site
                {
                  OFFSET 14.3835 0 0
                }
              }
            }
          }
        }
        JOINT RightShoulder
        {
          OFFSET -3.85764 20.1358 -0.319195
          CHANNELS 6 Xposition Yposition Zposition Zrotation Xrotation Yrotation
          JOINT RightArm
          {
            OFFSET -12.7665 0 0
            CHANNELS 6 Xposition Yposition Zposition Zrotation Xrotation Yrotation
            JOINT RightForeArm
            {
              OFFSET -28.396 0 0
              CHANNELS 6 Xposition Yposition Zposition Zrotation Xrotation Yrotation
              JOINT RightHand
              {
                OFFSET -28.7929 0 0
                CHANNELS 6 Xposition Yposition Zposition Zrotation Xrotation Yrotation
                End Site
                {
                  OFFSET -14.3835 0 0
                }
              }
            }
          }
        }
      }
    }
    JOINT LeftUpLeg
    {
      OFFSET 9.58901 0 0
      CHANNELS 6 Xposition Yposition Zposition Zrotation Xrotation Yrotation
      JOINT LeftLeg
      {
        OFFSET 0 -41.7092 0
        CHANNELS 6 Xposition Yposition Zposition Zrotation Xrotation Yrotation
        JOINT LeftFoot
        {
          OFFSET 0 -41.5308 0
          CHANNELS 6 Xposition Yposition Zposition Zrotation Xrotation Yrotation
          JOINT LeftToeBase
          {
            OFFSET 0 -6.23286 14.3835
            CHANNELS 6 Xposition Yposition Zposition Zrotation Xrotation Yrotation
            End Site
            {
              OFFSET 0 0 3.8356
            }
          }
        }
      }
    }
    JOINT RightUpLeg
    {
      OFFSET -9.58901 0 0
      CHANNELS 6 Xposition Yposition Zposition Zrotation Xrotation Yrotation
      JOINT RightLeg
      {
        OFFSET 0 -41.7092 0
        CHANNELS 6 Xposition Yposition Zposition Zrotation Xrotation Yrotation
        JOINT RightFoot
        {
          OFFSET 0 -41.5308 0
          CHANNELS 6 Xposition Yposition Zposition Zrotation Xrotation Yrotation
          JOINT RightToeBase
          {
            OFFSET 0 -6.23286 14.3835
            CHANNELS 6 Xposition Yposition Zposition Zrotation Xrotation Yrotation
            End Site
            {
              OFFSET 0 0 3.8356
            }
          }
        }
      }
    }
  }
}
MOTION
Frames:	9
Frame Time:	0.004
0 0 0 0 0 -0 -9.19121 85.1711 -195.098 -0.559101 -1.39847 3.25236 -1.77636e-015 7.86299 0 2.07186 -6.03748 0.490545 1.77636e-015 22.6654 0 -0.147765 -1.10818 0.379191 0 22.5723 2.05203 -0.408648 20.6865 -0.208464 1.77636e-015 13.4246 -1.9178 2.73043 1.41901 0.121899 3.7941 20.1358 -0.319195 9.53845 2.34763 2.60425 12.7665 0 0 -11.6914 0.493761 -6.27739 28.396 2.84217e-014 0 0.24478 5.10024 -0.337459 28.7929 0 2.84217e-014 8.23251 5.01178 -1.24985 -3.85764 20.1358 -0.319195 -8.27725 7.00333 8.38172 -12.7665 2.84217e-014 0 9.78345 -0.522787 -0.639515 -28.396 0 0 0.410046 1.36018 0.116895 -28.7929 0 0 -5.39926 1.7758 -8.80863 9.58901 1.42109e-014 2.84217e-014 4.0253 5.20113 -4.08209 0 -41.7092 -2.84217e-014 -2.9662 -2.56341 -7.48575 3.55271e-015 -41.5308 0 3.73741 -8.41789 21.9518 0 -6.23286 14.3835 5.96354e-016 1.59028e-015 -3.18055e-015 -9.58901 1.42109e-014 0 -3.08604 1.84927 4.05608 0 -41.7092 0 2.44641 3.72817 -3.96332 -3.55271e-015 -41.5308 0 1.71045 -10.2752 -8.47409 0 -6.23286 14.3835 0 0 -0 
0 0 0 0 0 -0 -9.19121 85.1711 -195.098 -0.559101 -1.39847 3.25236 -1.77636e-015 7.86299 0 2.07194 -6.04683 0.490553 -1.77636e-015 22.6654 0 -0.147765 -1.10818 0.379191 -8.88178e-016 22.5723 2.05203 -0.408612 20.6957 -0.208476 -1.77636e-015 13.4246 -1.9178 2.71312 1.44308 0.1219 3.7941 20.1358 -0.319195 9.53383 2.34543 2.6116 12.7665 0 0 -11.7106 0.429256 -6.30436 28.396 -2.84217e-014 0 0.255599 5.10789 -0.345367 28.7929 -2.84217e-014 0 8.24694 5.01886 -1.24987 -3.85764 20.1358 -0.319195 -8.27725 7.00333 8.38172 -12.7665 0 2.84217e-014 9.78345 -0.522787 -0.639515 -28.396 -2.84217e-014 2.84217e-014 0.439658 1.42269 0.107386 -28.7929 2.84217e-014 -2.84217e-014 -5.41466 1.84018 -8.8235 9.58901 1.42109e-014 2.84217e-014 4.0253 5.20113 -4.08209 0 -41.7092 -2.84217e-014 -2.96546 -2.56351 -7.46934 0 -41.5308 0 3.74083 -8.42586 21.9533 0 -6.23286 14.3835 -1.98785e-016 -7.95139e-016 -3.18055e-015 -9.58901 1.42109e-014 0 -3.08604 1.84927 4.05629 0 -41.7092 0 2.44125 3.72387 -3.93968 1.77636e-015 -41.5308 -2.84217e-014 1.69262 -10.2671 -8.47387 0 -6.23286 14.3835 -9.93923e-017 7.95139e-016 -0 
0 0 0 0 0 -0 -9.19059 85.1711 -195.098 -0.559101 -1.39847 3.25236 0 7.86299 2.84217e-014 2.07197 -6.04978 0.490556 -1.77636e-015 22.6654 0 -0.149931 -1.10818 0.379191 -2.66454e-015 22.5723 2.05203 -0.408709 20.7034 -0.208487 0 13.4246 -1.9178 2.71049 1.44196 0.1219 3.7941 20.1358 -0.319195 9.52479 2.35875 2.62126 12.7665 0 0 -11.6992 0.433188 -6.3166 28.396 2.84217e-014 2.84217e-014 0.257143 5.08554 -0.364758 28.7929 0 0 8.22443 4.99686 -1.24982 -3.85764 20.1358 -0.319195 -8.2733 7.00122 8.38598 -12.7665 2.84217e-014 2.84217e-014 9.78257 -0.522924 -0.639515 -28.396 0 2.84217e-014 0.41923 1.33653 0.100115 -28.7929 0 0 -5.39714 1.75253 -8.81958 9.58901 0 2.84217e-014 4.0253 5.20113 -4.08209 0 -41.7092 -2.84217e-014 -2.96482 -2.56359 -7.45494 0 -41.5308 0 3.73213 -8.44046 21.9263 -7.10543e-015 -6.23286 14.3835 -1.98785e-016 0 -0 -9.58901 1.42109e-014 2.84217e-014 -3.08559 1.8493 4.04222 -3.55271e-015 -41.7092 2.84217e-014 2.47381 3.73698 -4.02194 -3.55271e-015 -41.5308 2.84217e-014 1.29632 -10.3359 -8.48174 0 -6.23286 14.3835 -9.93923e-017 7.95139e-016 -0 
0 0 0 0 0 -0 -9.18916 85.1711 -195.098 -0.559144 -1.39848 3.25062 1.77636e-015 7.86299 2.84217e-014 2.07203 -6.0568 0.490563 -1.77636e-015 22.6654 2.84217e-014 -0.10818 -1.11143 0.379191 1.77636e-015 22.5723 2.05203 -0.479568 20.7153 -0.208503 -1.77636e-015 13.4246 -1.9178 2.74838 1.46457 0.121901 3.7941 20.1358 -0.319195 9.47393 2.36362 2.61187 12.7665 2.84217e-014 0 -11.6935 0.399111 -6.30581 28.396 0 0 0.270863 5.09521 -0.390564 28.7929 2.84217e-014 -2.84217e-014 8.20501 5.00697 -1.24787 -3.85764 20.1358 -0.319195 -8.31543 7.02339 8.39669 -12.7665 0 0 9.7939 -0.548483 -0.639354 -28.396 0 0 0.451485 1.41447 0.086982 -28.7929 0 0 -5.42528 1.83246 -8.81471 9.58901 -1.42109e-014 0 4.02531 5.20135 -4.08209 8.88178e-016 -41.7092 2.84217e-014 -2.96591 -2.57447 -7.44758 0 -41.5308 0 3.71888 -8.44116 21.924 0 -6.23286 14.3835 -3.97569e-016 0 -3.18055e-015 -9.58901 -1.42109e-014 2.84217e-014 -3.08628 1.84928 4.05264 0 -41.7092 0 2.47501 3.7429 -4.00877 -3.55271e-015 -41.5308 0 1.65399 -10.295 -8.51867 7.10543e-015 -6.23286 14.3835 1.98785e-016 0 -0 
0 0 0 0 0 -0 -9.18755 85.1711 -195.098 -0.559192 -1.39848 3.24862 -1.77636e-015 7.86299 2.84217e-014 2.07208 -6.06341 0.490569 0 22.6654 0 -0.147584 -1.09811 0.379189 0 22.5723 2.05203 -0.417136 20.6916 -0.208471 -1.77636e-015 13.4246 -1.9178 2.7103 1.49556 0.111591 3.7941 20.1358 -0.319195 9.51533 2.36972 2.62874 12.7665 0 0 -11.7123 0.391668 -6.33244 28.396 0 0 0.275571 5.08963 -0.410709 28.7929 -2.84217e-014 0 8.19429 5.00217 -1.23748 -3.85764 20.1358 -0.319195 -8.27153 7.00209 8.38552 -12.7665 0 0 9.78469 -0.528744 -0.639151 -28.396 2.84217e-014 -2.84217e-014 0.416474 1.34486 0.082131 -28.7929 0 0 -5.32913 1.75395 -8.78266 9.58901 0 0 4.02533 5.20165 -4.0821 -4.44089e-016 -41.7092 -2.84217e-014 -2.96574 -2.5688 -7.46012 -3.55271e-015 -41.5308 0 3.72171 -8.44144 21.9338 0 -6.23286 14.3835 3.97569e-016 7.95139e-016 3.18055e-015 -9.58901 -1.42109e-014 0 -3.08705 1.84925 4.06547 -3.55271e-015 -41.7092 2.84217e-014 2.47774 3.74349 -4.02557 1.77636e-015 -41.5308 0 1.64564 -10.2969 -8.50386 0 -6.23286 14.3835 1.98785e-016 -1.59028e-015 -7.95139e-016 
0 0 0 0 0 -0 -9.18586 85.1711 -195.098 -0.559241 -1.39848 3.24663 0 7.86299 2.84217e-014 2.07208 -6.06335 0.490568 0 22.6654 0 -0.101365 -1.10625 0.37919 8.88178e-016 22.5723 2.05203 -0.494637 20.7128 -0.2085 1.77636e-015 13.4246 -1.9178 2.75681 1.49906 0.118683 3.7941 20.1358 -0.319195 9.45887 2.36527 2.61557 12.7665 0 0 -11.6967 0.39194 -6.32952 28.396 0 -2.84217e-014 0.288172 5.0819 -0.430141 28.7929 0 0 8.16596 4.99519 -1.23434 -3.85764 20.1358 -0.319195 -8.31206 7.01164 8.39417 -12.7665 0 0 9.79996 -0.538919 -0.63893 -28.396 0 0 0.449912 1.42411 0.072665 -28.7929 0 2.84217e-014 -5.37961 1.83704 -8.78194 9.58901 1.42109e-014 0 4.02536 5.20198 -4.0821 -8.88178e-016 -41.7092 -2.84217e-014 -2.96355 -2.55805 -7.44287 0 -41.5308 0 3.71889 -8.46574 21.9141 -7.10543e-015 -6.23286 14.3835 3.97569e-016 -7.95139e-016 -4.77083e-015 -9.58901 0 0 -3.08826 1.84923 4.07366 -3.55271e-015 -41.7092 -2.84217e-014 2.4789 3.74413 -4.01797 0 -41.5308 0 1.65562 -10.2982 -8.51979 0 -6.23286 14.3835 1.98785e-016 0 -7.95139e-016 
0 0 0 0 0 -0 -9.18423 85.1711 -195.098 -0.559257 -1.39895 3.24488 0 7.86299 0 2.07218 -6.07487 0.490579 0 22.6654 -2.84217e-014 -0.0944896 -1.10158 0.37919 0 22.5723 2.05203 -0.503766 20.7136 -0.208501 -1.77636e-015 13.4246 -1.9178 2.74326 1.51732 0.118283 3.7941 20.1358 -0.319195 9.44299 2.3746 2.61746 12.7665 0 0 -11.6993 0.383263 -6.32864 28.396 -2.84217e-014 0 0.301319 5.07861 -0.461973 28.7929 0 0 8.14546 4.99233 -1.23556 -3.85764 20.1358 -0.319195 -8.31894 7.01205 8.40636 -12.7665 0 0 9.79949 -0.529617 -0.638701 -28.396 2.84217e-014 0 0.423235 1.35051 0.077919 -28.7929 2.84217e-014 2.84217e-014 -5.31365 1.75772 -8.76798 9.58901 0 0 4.02538 5.2023 -4.0821 -4.44089e-016 -41.7092 0 -2.96534 -2.57731 -7.42753 0 -41.5308 0 3.70703 -8.45246 21.9155 7.10543e-015 -6.23286 14.3835 1.98785e-016 2.38542e-015 -0 -9.58901 0 0 -3.09241 1.8489 4.07573 0 -41.7092 2.84217e-014 2.48159 3.74456 -4.03408 -1.77636e-015 -41.5308 2.84217e-014 1.64402 -10.3012 -8.49591 0 -6.23286 14.3835 -0 0 7.95139e-016 
0 0 0 0 0 -0 -9.18277 85.1711 -195.098 -0.559265 -1.39934 3.24365 0 7.86299 2.84217e-014 2.07225 -6.08283 0.490586 -1.77636e-015 22.6654 0 -0.0918089 -1.09531 0.379189 0 22.5723 2.05203 -0.510651 20.7171 -0.208506 1.77636e-015 13.4246 -1.9178 2.75048 1.52158 0.116771 3.7941 20.1358 -0.319195 9.44138 2.37174 2.62221 12.7665 0 2.84217e-014 -11.7083 0.373777 -6.33438 28.396 0 0 0.310174 5.07387 -0.48966 28.7929 0 0 8.12454 4.98777 -1.23576 -3.85764 20.1358 -0.319195 -8.31783 7.00987 8.4055 -12.7665 0 0 9.80692 -0.535674 -0.638484 -28.396 0 0 0.41821 1.36207 0.063131 -28.7929 2.84217e-014 0 -5.2766 1.76562 -8.74764 9.58901 -1.42109e-014 2.84217e-014 4.0254 5.20255 -4.0821 8.88178e-016 -41.7092 -2.84217e-014 -2.96218 -2.55152 -7.43578 0 -41.5308 0 3.72811 -8.45857 21.9204 0 -6.23286 14.3835 -1.98785e-016 0 -1.59028e-015 -9.58901 -1.42109e-014 2.84217e-014 -3.10085 1.84859 4.07589 -3.55271e-015 -41.7092 0 2.48174 3.74503 -4.01239 0 -41.5308 -2.84217e-014 1.65103 -10.3052 -8.52556 7.10543e-015 -6.23286 14.3835 1.98785e-016 7.95139e-016 1.59028e-015 
0 0 0 0 0 -0 -9.18161 85.1711 -195.098 -0.55965 -1.3997 3.24318 0 7.86299 2.84217e-014 2.07226 -6.08431 0.490588 8.88178e-016 22.6654 0 -0.0890704 -1.09391 0.379189 0 22.5723 2.05203 -0.503472 20.716 -0.208504 1.77636e-015 13.4246 -1.9178 2.72939 1.54109 0.114985 3.7941 20.1358 -0.319195 9.44234 2.35775 2.62584 12.7665 0 0 -11.7203 0.382627 -6.34075 28.396 -2.84217e-014 -2.84217e-014 0.313644 5.03761 -0.519023 28.7929 0 2.84217e-014 8.14666 4.95202 -1.22646 -3.85764 20.1358 -0.319195 -8.31562 7.00263 8.40489 -12.7665 -2.84217e-014 0 9.81362 -0.515253 -0.638292 -28.396 -2.84217e-014 0 0.43931 1.41895 0.068645 -28.7929 0 0 -5.32616 1.82679 -8.7602 9.58901 0 0 4.02496 5.20273 -4.07717 0 -41.7092 2.84217e-014 -2.96421 -2.57264 -7.42582 0 -41.5308 0 3.71603 -8.45445 21.8968 7.10543e-015 -6.23286 14.3835 -1.98785e-016 0 -0 -9.58901 0 2.84217e-014 -3.10287 1.84829 4.07263 3.55271e-015 -41.7092 0 2.48329 3.74525 -4.01357 -3.55271e-015 -41.5308 2.84217e-014 1.66564 -10.3093 -8.53243 0 -6.23286 14.3835 -1.98785e-016 7.95139e-016 -0 
